# xmcd
#
# Track frame offsets:
# 150
# 1766
# 11557
# 27921
# 64052
# 79908
# 98987
# 111648
# 114804
#
# Disc length: 1639 seconds
#
#
# Revision: 0
# Processed by: cddbd v1.5.1PL2 Copyright (c) Steve Scherf et al.
# Submitted via: FreeRIP 2.945 
#
DISCID=66066509
DTITLE=Muleskinner Jones - Death Row Hoedown
DYEAR=2004
DGENRE=Country
TTITLE0=Opening Theme
TTITLE1=Death Row Hoedown
TTITLE2=My Rented Room
TTITLE3=Truckstop Funeral
TTITLE4=So Long, Mary Jones
TTITLE5=Come Inside, Stranger
TTITLE6=Concrete Swamp
TTITLE7=Untitled
TTITLE8=Closing Theme
EXTD=
EXTT0=
EXTT1=
EXTT2=
EXTT3=
EXTT4=
EXTT5=
EXTT6=
EXTT7=
EXTT8=
PLAYORDER=
